<?xml version="1.0" encoding="UTF-8" standalone="no"?>
<!DOCTYPE svg PUBLIC "-//W3C//DTD SVG 1.1//EN" "http://www.w3.org/Graphics/SVG/1.1/DTD/svg11.dtd">
<svg version="1.1" xmlns="http://www.w3.org/2000/svg" xmlns:xlink="http://www.w3.org/1999/xlink" preserveAspectRatio="xMidYMid meet" viewBox="0 0 640 640" width="640" height="640"><defs><path d="" id="b2064gpwKz"></path><path d="M54.62 132.01L316.38 294.64L316.38 612.74L54.62 438.37L54.62 132.01Z" id="bfsTW1sML"></path><path d="M578.13 167.56L316.38 294.64L316.38 612.74L578.13 473.64L578.13 167.56Z" id="c4WwTCpolU"></path><path d="M326.13 37.87L578.13 167.56L316.38 297.26L54.62 132.01L326.13 37.87Z" id="a4AJbdV3Kw"></path><path d="M227.17 71.62L481.14 215.13L429.37 241.58L174.53 89.45L227.17 71.62Z" id="anGvdW0LM"></path><path d="M481.14 214.98L428.45 241.72L428.45 338.48L481.14 310.06L481.14 214.98Z" id="alagis47d"></path><path d="M253.24 490.36L296.29 518.57L296.29 570.88L253.24 542.21L253.24 490.36Z" id="a47EslVNF"></path></defs><g><g><g><g><g><use xlink:href="#b2064gpwKz" opacity="1" fill-opacity="0" stroke="#000000" stroke-width="1" stroke-opacity="1"></use></g></g><g><use xlink:href="#bfsTW1sML" opacity="1" fill="#936c3b" fill-opacity="1"></use></g><g><use xlink:href="#c4WwTCpolU" opacity="1" fill="#bd8c4d" fill-opacity="1"></use></g><g><use xlink:href="#a4AJbdV3Kw" opacity="1" fill="#b18a58" fill-opacity="1"></use></g><g><use xlink:href="#anGvdW0LM" opacity="1" fill="#e0b988" fill-opacity="1"></use></g><g><use xlink:href="#alagis47d" opacity="1" fill="#e0b988" fill-opacity="1"></use></g><g><use xlink:href="#a47EslVNF" opacity="1" fill="#7e5c30" fill-opacity="1"></use></g></g></g></g></svg>