<?xml version="1.0" encoding="UTF-8" standalone="no"?>
<!DOCTYPE svg PUBLIC "-//W3C//DTD SVG 1.1//EN" "http://www.w3.org/Graphics/SVG/1.1/DTD/svg11.dtd">
<svg version="1.1" xmlns="http://www.w3.org/2000/svg" xmlns:xlink="http://www.w3.org/1999/xlink" preserveAspectRatio="xMidYMid meet" viewBox="0 0 1200 800" width="1200" height="800"><defs><path d="M0 745.79L1200 745.79L1200 805.36L0 805.36L0 745.79Z" id="bpNk10njz"></path><path d="M-0.51 326.73L147.93 326.73L147.93 759.25L-0.51 759.25L-0.51 326.73Z" id="l4l30yOODr"></path><path d="M1015.46 554.14L1178.53 554.14L1178.53 408.68L1015.46 408.68L1015.46 554.14Z" id="b1aDbfzLzA"></path><path d="M853.83 553.19L1200 553.19L1200 764.46L853.83 764.46L853.83 553.19Z" id="cba6XLNLX"></path><path d="M853.83 633.47L1002.27 633.47L1002.27 765.42L853.83 765.42L853.83 633.47Z" id="bahDNw1TOP"></path><path d="M21.66 468.23L147.93 468.23L147.93 759.25L21.66 759.25L21.66 468.23Z" id="gKK46Diy"></path><path d="M777.5 638.63L991.04 638.63L991.04 790.2L777.5 790.2L777.5 638.63Z" id="a9ufIcj8"></path><path d="M231.73 740.96L467.38 740.96L467.38 772.27L231.73 772.27L231.73 740.96Z" id="a9fK7bB07"></path><path d="M32.43 475.24L231.73 475.24L231.73 784.99L32.43 784.99L32.43 475.24Z" id="gThaVBwu5"></path><path d="M231.73 591.4L461.94 591.4L461.94 759.25L231.73 759.25L231.73 591.4Z" id="cIPzsVt"></path><path d="M427.88 714.52L442.27 714.52L442.27 745.83L427.88 745.83L427.88 714.52Z" id="a12DxT0gtF"></path><path d="M415.69 714.52L423.31 714.52L423.31 745.83L415.69 745.83L415.69 714.52Z" id="c25tm8DPuj"></path><path d="M403.96 714.52L411.57 714.52L411.57 745.83L403.96 745.83L403.96 714.52Z" id="f88erzKfOV"></path><path d="M261.54 591.4L295.92 591.4L295.92 759.25L261.54 759.25L261.54 591.4Z" id="c2KIF5PK5J"></path><path d="M386.27 715.07C389.46 715.07 392.04 717.66 392.04 720.84C392.04 725.95 392.04 735.5 392.04 740.61C392.04 743.8 389.46 746.38 386.27 746.38C381.27 746.38 372.03 746.38 367.02 746.38C363.84 746.38 361.25 743.8 361.25 740.61C361.25 735.5 361.25 725.95 361.25 720.84C361.25 717.66 363.84 715.07 367.02 715.07C372.03 715.07 381.27 715.07 386.27 715.07Z" id="i7meS8y0Ue"></path><path d="M385.06 730.49L376.69 722.04L368.24 730.41L373.57 730.44L373.53 739.36L379.7 739.39L379.74 730.47L385.06 730.49Z" id="d1OurP90KV"></path><path d="M32.43 518.66L231.73 518.66L231.73 551.6L32.43 551.6L32.43 518.66Z" id="h1wuNHm7QF"></path><path d="M32.43 695.29L231.73 695.29L231.73 728.23L32.43 728.23L32.43 695.29Z" id="a136bcyr01"></path><path d="M215.46 596.76C215.46 611.26 203.52 623.02 188.81 623.02C174.1 623.02 162.16 611.26 162.16 596.76C162.16 582.27 174.1 570.51 188.81 570.51C203.52 570.51 215.46 582.27 215.46 596.76Z" id="e1FUKb80HU"></path><path d="M43.2 527.41L73.71 527.41L73.71 542.99L43.2 542.99L43.2 527.41Z" id="b46ATIDOzz"></path><path d="M94.05 347.48L132.08 347.48L132.08 450.7L94.05 450.7L94.05 347.48Z" id="b1fGKE2sFM"></path><path d="M116.05 361.47L104.12 361.47L104.12 381.93L122.02 381.93L122.02 369.99L125 369.99L125 385.34L101.14 385.34L101.14 358.06L116.05 358.06L116.05 361.47ZM115.47 373.76L115.47 373.76L112.01 377.71L105.61 370.39L109.06 366.44L112.01 369.81L120.05 360.62L123.51 364.57L115.47 373.76Z" id="b1QT4uxgyt"></path><path d="M116.05 398.45L104.12 398.45L104.12 418.91L122.02 418.91L122.02 406.97L125 406.97L125 422.32L101.14 422.32L101.14 395.04L116.05 395.04L116.05 398.45ZM115.47 410.74L115.47 410.74L112.01 414.69L105.61 407.37L109.06 403.42L112.01 406.79L120.05 397.6L123.51 401.55L115.47 410.74Z" id="g6Atb81o6"></path><path d="M957.35 732.59L934.66 732.59L934.66 768.45L968.69 768.45L968.69 747.53L974.36 747.53L974.36 774.42L928.99 774.42L928.99 726.61L957.35 726.61L957.35 732.59ZM956.24 754.13L956.24 754.13L949.67 761.06L937.49 748.23L944.06 741.31L949.66 747.21L964.95 731.1L971.53 738.02L956.24 754.13Z" id="eUTaT6Tfq"></path><path d="M787.67 652.04L884.27 652.04L884.27 678.28L787.67 678.28L787.67 652.04Z" id="aErE9lxQV"></path><path d="M1051.65 408.68L1084.05 408.68L1084.05 554.14L1051.65 554.14L1051.65 408.68Z" id="a5NAjnhLxu"></path><path d="M1147.85 572.26C1153.17 572.26 1157.48 577.1 1157.48 583.08C1157.48 599.61 1138.22 607.82 1138.22 608.27C1138.22 608.27 1138.22 608.27 1138.22 608.27C1138.22 607.82 1118.96 599.61 1118.96 583.07C1118.96 577.1 1123.27 572.26 1128.59 572.26C1133.91 572.26 1138.22 576.5 1138.22 582.48C1138.22 576.5 1142.53 572.26 1147.85 572.26Z" id="d9d4eBc8T"></path><path d="M1148.42 627.51C1151.61 627.51 1154.19 630.1 1154.19 633.29C1154.19 638.39 1154.19 647.94 1154.19 653.05C1154.19 656.24 1151.61 658.82 1148.42 658.82C1143.42 658.82 1134.18 658.82 1129.17 658.82C1125.99 658.82 1123.4 656.24 1123.4 653.05C1123.4 647.94 1123.4 638.39 1123.4 633.29C1123.4 630.1 1125.99 627.51 1129.17 627.51C1134.18 627.51 1143.42 627.51 1148.42 627.51Z" id="f1BTZyGbPx"></path><path d="M1147.21 642.94L1138.84 634.48L1130.39 642.86L1135.72 642.88L1135.68 651.8L1141.85 651.83L1141.9 642.91L1147.21 642.94Z" id="a1V6squOhb"></path><path d="M1026.91 687.55L1178.53 687.55L1178.53 699.44L1026.91 699.44L1026.91 687.55Z" id="b1JMY6quc"></path><path d="M-0.51 326.73L7.1 326.73L7.1 759.25L-0.51 759.25L-0.51 326.73Z" id="bDpmMYdAs"></path><path d="M231.73 591.4L246.12 591.4L246.12 759.25L231.73 759.25L231.73 591.4Z" id="b81x4YxI0"></path><path d="M0.03 759.25L32.43 759.25L32.43 786.52L0.03 786.52L0.03 759.25Z" id="b1MPkNyZiM"></path><path d="M991.04 764.46L1199.16 764.46L1199.16 781.79L991.04 781.79L991.04 764.46Z" id="a3Uxqw1YtJ"></path><path d="M1164.51 417.11C1167.42 417.11 1169.79 419.47 1169.79 422.38C1169.79 426.7 1169.79 434.38 1169.79 438.7C1169.79 441.61 1167.42 443.97 1164.51 443.97C1150.69 443.97 1114.48 443.97 1100.65 443.97C1097.74 443.97 1095.38 441.61 1095.38 438.7C1095.38 434.38 1095.38 426.7 1095.38 422.38C1095.38 419.47 1097.74 417.11 1100.65 417.11C1114.48 417.11 1150.69 417.11 1164.51 417.11Z" id="agXEvpMR3"></path><path d="M1026.91 705.28L1178.53 705.28L1178.53 717.17L1026.91 717.17L1026.91 705.28Z" id="d9fe6Xpzom"></path><path d="M1026.91 725.14L1178.53 725.14L1178.53 737.03L1026.91 737.03L1026.91 725.14Z" id="d1G625Rv3L"></path></defs><g><g><g><use xlink:href="#bpNk10njz" opacity="1" fill="#8f662d" fill-opacity="1"></use></g><g><use xlink:href="#l4l30yOODr" opacity="1" fill="#c08f4f" fill-opacity="1"></use></g><g><use xlink:href="#b1aDbfzLzA" opacity="1" fill="#a57737" fill-opacity="1"></use><g><use xlink:href="#b1aDbfzLzA" opacity="1" fill-opacity="0" stroke="#29cb57" stroke-width="0" stroke-opacity="1"></use></g></g><g><use xlink:href="#cba6XLNLX" opacity="1" fill="#b47f36" fill-opacity="1"></use><g><use xlink:href="#cba6XLNLX" opacity="1" fill-opacity="0" stroke="#29cb57" stroke-width="0" stroke-opacity="1"></use></g></g><g><use xlink:href="#bahDNw1TOP" opacity="1" fill="#a57737" fill-opacity="1"></use></g><g><use xlink:href="#gKK46Diy" opacity="1" fill="#a4722e" fill-opacity="1"></use></g><g><use xlink:href="#a9ufIcj8" opacity="1" fill="#bc8c4c" fill-opacity="1"></use></g><g><use xlink:href="#a9fK7bB07" opacity="1" fill="#714d1b" fill-opacity="1"></use></g><g><use xlink:href="#gThaVBwu5" opacity="1" fill="#b47f36" fill-opacity="1"></use><g><use xlink:href="#gThaVBwu5" opacity="1" fill-opacity="0" stroke="#29cb57" stroke-width="0" stroke-opacity="1"></use></g></g><g><use xlink:href="#cIPzsVt" opacity="1" fill="#a57737" fill-opacity="1"></use><g><use xlink:href="#cIPzsVt" opacity="1" fill-opacity="0" stroke="#29cb57" stroke-width="0" stroke-opacity="1"></use></g></g><g><use xlink:href="#a12DxT0gtF" opacity="1" fill="#bf9258" fill-opacity="1"></use></g><g><use xlink:href="#c25tm8DPuj" opacity="1" fill="#bf9258" fill-opacity="1"></use></g><g><use xlink:href="#f88erzKfOV" opacity="1" fill="#bf9258" fill-opacity="1"></use></g><g><use xlink:href="#c2KIF5PK5J" opacity="1" fill="#b07e3f" fill-opacity="1"></use></g><g><g><use xlink:href="#i7meS8y0Ue" opacity="1" fill-opacity="0" stroke="#bf9258" stroke-width="3" stroke-opacity="1"></use></g></g><g><use xlink:href="#d1OurP90KV" opacity="1" fill="#bf9258" fill-opacity="1"></use></g><g><use xlink:href="#h1wuNHm7QF" opacity="1" fill="#a27332" fill-opacity="1"></use></g><g><use xlink:href="#a136bcyr01" opacity="1" fill="#a27332" fill-opacity="1"></use></g><g><use xlink:href="#e1FUKb80HU" opacity="1" fill="#bc8d4b" fill-opacity="1"></use></g><g><use xlink:href="#b46ATIDOzz" opacity="1" fill="#b17f38" fill-opacity="1"></use></g><g><g><use xlink:href="#b1fGKE2sFM" opacity="1" fill-opacity="0" stroke="#b37e36" stroke-width="5" stroke-opacity="1"></use></g></g><g><use xlink:href="#b1QT4uxgyt" opacity="1" fill="#b17f38" fill-opacity="1"></use></g><g><use xlink:href="#g6Atb81o6" opacity="1" fill="#b17f38" fill-opacity="1"></use></g><g><use xlink:href="#eUTaT6Tfq" opacity="1" fill="#aa7d44" fill-opacity="1"></use></g><g><use xlink:href="#aErE9lxQV" opacity="1" fill="#ab7b3e" fill-opacity="1"></use></g><g><use xlink:href="#a5NAjnhLxu" opacity="1" fill="#b48747" fill-opacity="1"></use></g><g><use xlink:href="#d9d4eBc8T" opacity="1" fill="#a26d2c" fill-opacity="1"></use></g><g><g><use xlink:href="#f1BTZyGbPx" opacity="1" fill-opacity="0" stroke="#a26d2c" stroke-width="3" stroke-opacity="1"></use></g></g><g><use xlink:href="#a1V6squOhb" opacity="1" fill="#a26d2c" fill-opacity="1"></use></g><g><use xlink:href="#b1JMY6quc" opacity="1" fill="#a26d2c" fill-opacity="1"></use></g><g><use xlink:href="#bDpmMYdAs" opacity="1" fill="#a57737" fill-opacity="1"></use></g><g><use xlink:href="#b81x4YxI0" opacity="1" fill="#996d30" fill-opacity="1"></use></g><g><use xlink:href="#b1MPkNyZiM" opacity="1" fill="#714d1b" fill-opacity="1"></use></g><g><use xlink:href="#a3Uxqw1YtJ" opacity="1" fill="#714d1b" fill-opacity="1"></use></g><g><use xlink:href="#agXEvpMR3" opacity="1" fill="#b48747" fill-opacity="1"></use></g><g><use xlink:href="#d9fe6Xpzom" opacity="1" fill="#a26d2c" fill-opacity="1"></use></g><g><use xlink:href="#d1G625Rv3L" opacity="1" fill="#a26d2c" fill-opacity="1"></use></g></g></g></svg>