<?xml version="1.0" encoding="UTF-8" standalone="no"?>
<!DOCTYPE svg PUBLIC "-//W3C//DTD SVG 1.1//EN" "http://www.w3.org/Graphics/SVG/1.1/DTD/svg11.dtd">
<svg version="1.1" xmlns="http://www.w3.org/2000/svg" xmlns:xlink="http://www.w3.org/1999/xlink" preserveAspectRatio="xMidYMid meet" viewBox="0 0 640 640" width="640" height="640"><defs><path d="" id="ekfYTe88h"></path><path d="M106.13 190.96L334.35 332.76L334.35 610.11L106.13 458.07L106.13 190.96Z" id="e7bePQ01G"></path><path d="M562.57 221.96L334.35 332.76L334.35 610.11L562.57 488.82L562.57 221.96Z" id="a5eU4tGSap"></path><path d="M342.86 108.89L562.57 221.96L334.35 335.04L106.13 190.96L342.86 108.89Z" id="a1eBR3NpRE"></path><path d="M231.19 147.54L448.46 278.82L334.35 335.04L106.13 190.96L231.19 147.54Z" id="c3z0EnJfR8"></path><path d="M279.31 503.41L316.84 528L316.84 573.61L279.31 548.61L279.31 503.41Z" id="aHpRzCgOC"></path><path d="M106.13 190.96L334.35 335.04L251.23 457.34L26.01 303.28L106.13 190.96Z" id="asH45icLP"></path><path d="M279.51 259.26L279.51 300.72L174 234.82L106.13 190.96L175.97 166.8L229.12 147.54L279.51 259.26Z" id="b208SCBFx"></path></defs><g><g><g><g><use xlink:href="#ekfYTe88h" opacity="1" fill-opacity="0" stroke="#000000" stroke-width="1" stroke-opacity="1"></use></g></g><g><use xlink:href="#e7bePQ01G" opacity="1" fill="#936c3b" fill-opacity="1"></use></g><g><use xlink:href="#a5eU4tGSap" opacity="1" fill="#bd8c4d" fill-opacity="1"></use></g><g><use xlink:href="#a1eBR3NpRE" opacity="1" fill="#b18a58" fill-opacity="1"></use></g><g><use xlink:href="#c3z0EnJfR8" opacity="1" fill="#332410" fill-opacity="1"></use></g><g><use xlink:href="#aHpRzCgOC" opacity="1" fill="#7e5c30" fill-opacity="1"></use></g><g><use xlink:href="#asH45icLP" opacity="1" fill="#b08b5b" fill-opacity="1"></use></g><g><use xlink:href="#b208SCBFx" opacity="1" fill="#6c4e26" fill-opacity="1"></use></g></g></g></svg>