<?xml version="1.0" encoding="UTF-8" standalone="no"?>
<!DOCTYPE svg PUBLIC "-//W3C//DTD SVG 1.1//EN" "http://www.w3.org/Graphics/SVG/1.1/DTD/svg11.dtd">
<svg version="1.1" xmlns="http://www.w3.org/2000/svg" xmlns:xlink="http://www.w3.org/1999/xlink" preserveAspectRatio="xMidYMid meet" viewBox="0 0 640 640" width="640" height="640"><defs><path d="M46.03 59.32L606.3 59.32L606.3 594.11L46.03 594.11L46.03 59.32Z" id="b69zYYJuYH"></path><path d="M504.9 409.26L426.02 409.26L426.02 533.93L544.34 533.93L544.34 461.2L564.05 461.2L564.05 554.71L406.3 554.71L406.3 388.48L504.9 388.48L504.9 409.26ZM501.03 484.16L501.04 484.17L478.19 508.25L435.86 463.64L458.71 439.56L478.18 460.08L531.34 404.06L554.19 428.14L501.03 484.16Z" id="c3WFLQxBBG"></path><path d="M65.48 86.31L121.37 86.31L121.37 268.44L65.48 268.44L65.48 86.31Z" id="l3M2dQJlhB"></path><path d="M143.01 86.31L172.88 86.31L172.88 268.44L143.01 268.44L143.01 86.31Z" id="gMcPkHnlh"></path><path d="M187.67 86.31L217.53 86.31L217.53 268.44L187.67 268.44L187.67 86.31Z" id="a4pCJGOaqd"></path></defs><g><g><g><use xlink:href="#b69zYYJuYH" opacity="1" fill="#bc8c4c" fill-opacity="1"></use></g><g><use xlink:href="#c3WFLQxBBG" opacity="1" fill="#936c3b" fill-opacity="1"></use></g><g><use xlink:href="#l3M2dQJlhB" opacity="1" fill="#936c3b" fill-opacity="1"></use></g><g><use xlink:href="#gMcPkHnlh" opacity="1" fill="#936c3b" fill-opacity="1"></use></g><g><use xlink:href="#a4pCJGOaqd" opacity="1" fill="#936c3b" fill-opacity="1"></use></g></g></g></svg>